<svg xmlns="http://www.w3.org/2000/svg" width="46.998" height="29.773" viewBox="0 0 46.998 29.773">
  <g id="noun_feedback_3343164" transform="translate(16.322 -1.652)">
    <path id="Path_238" data-name="Path 238" d="M12.291,14.35a.36.36,0,0,0,.091.369l4.535,4.421-1.07,6.243a.36.36,0,0,0,.522.379l5.606-2.948,5.606,2.948a.36.36,0,0,0,.522-.379L27.033,19.14l4.536-4.421a.36.36,0,0,0-.2-.613L25.1,13.2l-2.8-5.68a.375.375,0,0,0-.645,0l-2.8,5.68-6.268.91A.36.36,0,0,0,12.291,14.35Zm6.849-.471a.359.359,0,0,0,.271-.2l2.565-5.2,2.565,5.2a.359.359,0,0,0,.271.2l5.733.833L26.4,18.758a.359.359,0,0,0-.1.318l.979,5.711-5.129-2.7a.359.359,0,0,0-.335,0l-5.128,2.7.979-5.711a.36.36,0,0,0-.1-.318l-4.149-4.044Z" transform="translate(-14.799 -2.877)" stroke="#000" stroke-width="0.3"/>
    <path id="Path_239" data-name="Path 239" d="M-4.4,16.068a.361.361,0,0,0,.379-.027.359.359,0,0,0,.143-.352l-.812-4.736L-1.254,7.6a.36.36,0,0,0,.091-.369.36.36,0,0,0-.29-.245L-6.207,6.3-8.333,1.986a.375.375,0,0,0-.645,0L-11.1,6.295l-4.755.691a.36.36,0,0,0-.29.245.36.36,0,0,0,.091.369l3.44,3.353-.812,4.736a.36.36,0,0,0,.143.352.36.36,0,0,0,.212.069.357.357,0,0,0,.167-.041l4.253-2.236Zm-8.2-.976.72-4.2a.36.36,0,0,0-.1-.318l-3.054-2.977,4.221-.613a.359.359,0,0,0,.271-.2l1.887-3.824,1.887,3.824a.359.359,0,0,0,.271.2l4.22.613-3.053,2.977a.36.36,0,0,0-.1.318l.721,4.2-3.775-1.985a.362.362,0,0,0-.335,0Z" transform="translate(0 0)" stroke="#000" stroke-width="0.3"/>
    <path id="Path_240" data-name="Path 240" d="M64.853,7.231a.359.359,0,0,0-.29-.245L59.809,6.3,57.682,1.987a.375.375,0,0,0-.646,0L54.91,6.3l-4.754.691a.36.36,0,0,0-.2.613L53.4,10.953l-.811,4.736a.36.36,0,0,0,.522.379l4.252-2.236,4.254,2.236a.36.36,0,0,0,.378-.027.361.361,0,0,0,.143-.352l-.813-4.736L64.763,7.6A.361.361,0,0,0,64.853,7.231ZM60.684,10.57a.359.359,0,0,0-.1.318l.722,4.2-3.776-1.985a.36.36,0,0,0-.334,0l-3.774,1.984.72-4.2a.36.36,0,0,0-.1-.318L50.98,7.593,55.2,6.98a.36.36,0,0,0,.271-.2L57.36,2.959l1.887,3.824a.359.359,0,0,0,.271.2l4.221.613Z" transform="translate(-34.35 -0.001)" stroke="#000" stroke-width="0.3"/>
    <path id="Path_241" data-name="Path 241" d="M30.4,48.062a63.554,63.554,0,0,1-37.518,0,.362.362,0,0,0-.45.238.36.36,0,0,0,.238.45,64.473,64.473,0,0,0,18.971,2.864A64.457,64.457,0,0,0,30.615,48.75a.36.36,0,0,0-.212-.688Z" transform="translate(-4.468 -24.062)" stroke="#000" stroke-width="0.3"/>
    <path id="Path_242" data-name="Path 242" d="M31.1,58.4a35.886,35.886,0,0,1-21.177,0,.36.36,0,1,0-.212.688,36.6,36.6,0,0,0,21.6,0A.36.36,0,0,0,31.1,58.4Z" transform="translate(-13.332 -29.44)" stroke="#000" stroke-width="0.3"/>
  </g>
</svg>
