<svg xmlns="http://www.w3.org/2000/svg" width="57.773" height="35.15" viewBox="0 0 57.773 35.15">
  <g id="noun_restaurant_menu_1250944" data-name="noun_restaurant menu_1250944" transform="translate(-458.3 -242.322)">
    <g id="Group_226" data-name="Group 226" transform="translate(458.3 242.322)">
      <g id="Group_208" data-name="Group 208" transform="translate(24.091 9.772)">
        <g id="Group_203" data-name="Group 203">
          <path id="Path_203" data-name="Path 203" d="M65.579,53.118H43.487a.636.636,0,0,1-.559-.28.581.581,0,0,1-.14-.559l4.964-23.42a.681.681,0,0,1,.7-.559H70.472a.636.636,0,0,1,.559.28.581.581,0,0,1,.14.559l-4.964,23.42A.663.663,0,0,1,65.579,53.118Zm-21.253-1.4H64.95L69.564,29.7H49.01Z" transform="translate(-42.761 -28.3)"/>
        </g>
        <g id="Group_204" data-name="Group 204" transform="translate(22.329 0.057)">
          <path id="Path_204" data-name="Path 204" d="M85.256,53.142H75.4a.7.7,0,0,1,0-1.4h9.018L79.454,29.233a.713.713,0,0,1,1.4-.28L86.025,52.3a.544.544,0,0,1-.14.559A1.256,1.256,0,0,1,85.256,53.142Z" transform="translate(-74.7 -28.381)"/>
        </g>
        <g id="Group_205" data-name="Group 205" transform="translate(7.088 6.362)">
          <path id="Path_205" data-name="Path 205" d="M67.581,38.8H53.6a.7.7,0,0,1,0-1.4H67.581a.66.66,0,0,1,.7.7A.7.7,0,0,1,67.581,38.8Z" transform="translate(-52.9 -37.4)"/>
        </g>
        <g id="Group_206" data-name="Group 206" transform="translate(6.389 10.836)">
          <path id="Path_206" data-name="Path 206" d="M67.28,45.2H52.6a.7.7,0,1,1,0-1.4H67.21a.66.66,0,0,1,.7.7A.646.646,0,0,1,67.28,45.2Z" transform="translate(-51.9 -43.8)"/>
        </g>
        <g id="Group_207" data-name="Group 207" transform="translate(6.389 15.59)">
          <path id="Path_207" data-name="Path 207" d="M66.371,52H52.6a.7.7,0,0,1,0-1.4H66.371a.7.7,0,0,1,0,1.4Z" transform="translate(-51.9 -50.6)"/>
        </g>
      </g>
      <g id="Group_214" data-name="Group 214" transform="translate(9.787 2.733)">
        <g id="Group_212" data-name="Group 212" transform="translate(0 6.27)">
          <g id="Group_209" data-name="Group 209">
            <path id="Path_208" data-name="Path 208" d="M29.571,41.6A7.265,7.265,0,0,1,22.3,34.331V27.9a.66.66,0,0,1,.7-.7H36.072a.66.66,0,0,1,.7.7v6.432A7.162,7.162,0,0,1,29.571,41.6Zm-5.8-12.933V34.4a5.872,5.872,0,1,0,11.745,0V28.668Z" transform="translate(-22.3 -27.2)"/>
          </g>
          <g id="Group_210" data-name="Group 210" transform="translate(6.572 13.003)">
            <path id="Path_209" data-name="Path 209" d="M32.4,57.824a.66.66,0,0,1-.7-.7V46.5a.7.7,0,0,1,1.4,0V57.125A.66.66,0,0,1,32.4,57.824Z" transform="translate(-31.7 -45.8)"/>
          </g>
          <line id="Line_22" data-name="Line 22" x2="8" transform="translate(3.413 24.497)" fill="none" stroke="#000" stroke-linecap="round" stroke-width="1"/>
        </g>
        <g id="Group_213" data-name="Group 213" transform="translate(9.368)">
          <path id="Path_211" data-name="Path 211" d="M36.4,25.969a.66.66,0,0,1-.7-.7V21.355a.623.623,0,0,1,.35-.559l3.775-2.447a.708.708,0,1,1,.769,1.188l-3.426,2.237v3.5A.814.814,0,0,1,36.4,25.969Z" transform="translate(-35.7 -18.231)"/>
        </g>
      </g>
      <g id="Group_215" data-name="Group 215" transform="translate(13.213 16.903)">
        <circle id="Ellipse_13" data-name="Ellipse 13" cx="0.699" cy="0.699" r="0.699"/>
      </g>
      <g id="Group_216" data-name="Group 216" transform="translate(21.113 15.994)">
        <circle id="Ellipse_14" data-name="Ellipse 14" cx="0.489" cy="0.489" r="0.489"/>
      </g>
      <g id="Group_217" data-name="Group 217" transform="translate(18.806 17.113)">
        <circle id="Ellipse_15" data-name="Ellipse 15" cx="0.35" cy="0.35" r="0.35"/>
      </g>
      <g id="Group_218" data-name="Group 218" transform="translate(17.617 18.93)">
        <circle id="Ellipse_16" data-name="Ellipse 16" cx="0.28" cy="0.28" r="0.28"/>
      </g>
      <g id="Group_219" data-name="Group 219" transform="translate(14.961 18.93)">
        <circle id="Ellipse_17" data-name="Ellipse 17" cx="0.28" cy="0.28" r="0.28"/>
      </g>
      <g id="Group_220" data-name="Group 220" transform="translate(8.358 3.799)">
        <path id="Path_212" data-name="Path 212" d="M23.782,25.869a.834.834,0,0,1-.629-.35l-2.8-4.684a.708.708,0,0,1,1.188-.769l2.8,4.684a.753.753,0,0,1-.21.979A.534.534,0,0,1,23.782,25.869Z" transform="translate(-20.256 -19.756)"/>
      </g>
      <g id="Group_221" data-name="Group 221" transform="translate(4.167 0)">
        <path id="Path_213" data-name="Path 213" d="M14.987,20.668a.719.719,0,0,1-.629-1.049l2.866-4.964a.7.7,0,0,1,.839-.28l5.593,2.307a.7.7,0,0,1,.419.7.671.671,0,0,1-.489.629l-8.459,2.657Zm3.146-4.754-1.678,2.866,4.894-1.538Z" transform="translate(-14.261 -14.322)"/>
      </g>
      <g id="Group_222" data-name="Group 222" transform="translate(9.787 13.827)">
        <path id="Path_214" data-name="Path 214" d="M36,35.5H23a.7.7,0,0,1,0-1.4H36a.7.7,0,0,1,0,1.4Z" transform="translate(-22.3 -34.1)"/>
      </g>
      <g id="Group_223" data-name="Group 223" transform="translate(0 23.964)">
        <path id="Path_215" data-name="Path 215" d="M13.893,59.786a5.593,5.593,0,1,1,5.593-5.593A5.609,5.609,0,0,1,13.893,59.786Zm0-9.787a4.195,4.195,0,1,0,4.195,4.195A4.207,4.207,0,0,0,13.893,50Z" transform="translate(-8.3 -48.6)"/>
      </g>
      <g id="Group_224" data-name="Group 224" transform="translate(4.894 20.468)">
        <path id="Path_216" data-name="Path 216" d="M16,48.494a.66.66,0,0,1-.7-.7V44.3a.7.7,0,0,1,1.4,0v3.5A.66.66,0,0,1,16,48.494Z" transform="translate(-15.3 -43.6)"/>
      </g>
      <g id="Group_225" data-name="Group 225" transform="translate(5.313 20.958)">
        <path id="Path_217" data-name="Path 217" d="M18.557,47.516c-1.538,0-2.657-.7-2.657-1.608S17.019,44.3,18.557,44.3a4.363,4.363,0,0,1,2.517,1.119l.489.489-.489.489A4.117,4.117,0,0,1,18.557,47.516Zm-1.629-1.678a2.126,2.126,0,0,0,1.629.629,2.963,2.963,0,0,0,1.617-.629,2.542,2.542,0,0,0-1.617-.585A2.931,2.931,0,0,0,16.927,45.838Z" transform="translate(-15.9 -44.3)"/>
      </g>
    </g>
  </g>
</svg>
