<svg xmlns="http://www.w3.org/2000/svg" width="40.099" height="40.1" viewBox="0 0 40.099 40.1">
  <g id="noun_Waiter_1312077" transform="translate(-9.998 -9.951)">
    <path id="Path_218" data-name="Path 218" d="M44.087,39a.5.5,0,0,0,.5-.5V37.166a.5.5,0,1,0-1,0V38.5A.5.5,0,0,0,44.087,39Z" transform="translate(-16.769 -13.332)" fill="#aa0025" stroke="#aa0025" stroke-width="0.1"/>
    <path id="Path_219" data-name="Path 219" d="M44.087,47.668a.5.5,0,0,0,.5-.5V45.834a.5.5,0,1,0-1,0v1.334A.5.5,0,0,0,44.087,47.668Z" transform="translate(-16.769 -17.666)" fill="#aa0025" stroke="#aa0025" stroke-width="0.1"/>
    <path id="Path_220" data-name="Path 220" d="M44.087,56.335a.5.5,0,0,0,.5-.5V54.5a.5.5,0,1,0-1,0v1.334A.5.5,0,0,0,44.087,56.335Z" transform="translate(-16.769 -22)" fill="#aa0025" stroke="#aa0025" stroke-width="0.1"/>
    <path id="Path_221" data-name="Path 221" d="M44.087,65a.5.5,0,0,0,.5-.5V63.169a.5.5,0,1,0-1,0V64.5A.5.5,0,0,0,44.087,65Z" transform="translate(-16.769 -26.334)" fill="#aa0025" stroke="#aa0025" stroke-width="0.1"/>
    <path id="Path_222" data-name="Path 222" d="M44.087,73.67a.5.5,0,0,0,.5-.5V71.836a.5.5,0,1,0-1,0V73.17A.5.5,0,0,0,44.087,73.67Z" transform="translate(-16.769 -30.667)" fill="#aa0025" stroke="#aa0025" stroke-width="0.1"/>
    <path id="Path_223" data-name="Path 223" d="M16.445,50H43.65a.5.5,0,0,0,.5-.5V46.549c.013,0,.027,0,.04-.008l5.563-2.5a.5.5,0,0,0,.3-.456V19.917c0-3.66-9.426-6.481-11.761-7.124l.028-.051a.5.5,0,0,0-.061-.572l-1.743-1.992a.511.511,0,0,0-.069-.067h0l-.018-.014a.515.515,0,0,0-.3-.1H24.1a.515.515,0,0,0-.3.1l-.018.014h0a.543.543,0,0,0-.069.067l-1.743,1.992a.5.5,0,0,0-.061.572l.011.021c-2.135.581-11.869,3.435-11.869,7.154V43.583a.5.5,0,0,0,.3.456l5.563,2.5a.377.377,0,0,0,.04.008V49.5A.5.5,0,0,0,16.445,50Zm13.6-5.181A14.721,14.721,0,0,0,37.253,49H22.842A14.725,14.725,0,0,0,30.047,44.82Zm19-24.9V43.26l-4.9,2.2V26.584a.5.5,0,1,0-1,0v22.4c-8.795-.579-12.08-4.443-12.6-5.14V18.91l2.306,2.357a.5.5,0,0,0,.358.151.508.508,0,0,0,.067,0,.5.5,0,0,0,.371-.253l4.14-7.466C42.21,14.872,49.047,17.557,49.047,19.917Zm-12.9-8.629,1.118,1.277L33.1,20.088l-2.082-2.127ZM35.112,11l-5,6.5-5-6.5Zm-11.045.288L29.2,17.961l-2.082,2.127L22.95,12.565ZM11.047,43.26V19.917c0-2.379,6.951-5.09,11.369-6.253l4.156,7.495a.5.5,0,0,0,.8.107l2.181-2.229V43.843c-.512.693-3.756,4.556-12.6,5.138v-22.4a.5.5,0,1,0-1,0V45.461Z" fill="#aa0025" stroke="#aa0025" stroke-width="0.1"/>
    <path id="Path_224" data-name="Path 224" d="M57.167,40.681a.5.5,0,0,0,.5.5h5.917a.5.5,0,0,0,.5-.5V38.254a.5.5,0,0,0-.5-.5H57.667a.5.5,0,0,0-.5.5Zm1-1.927h4.917v1.427H58.167Z" transform="translate(-23.559 -13.876)" fill="#aa0025" stroke="#aa0025" stroke-width="0.1"/>
  </g>
</svg>
