<svg xmlns="http://www.w3.org/2000/svg" width="38.606" height="38" viewBox="0 0 38.606 38">
  <g id="noun_invoice_3233516" transform="translate(-4.712 -102.911)">
    <g id="Group_245" data-name="Group 245" transform="translate(4.712 102.911)">
      <g id="Group_238" data-name="Group 238" transform="translate(0 0.005)">
        <g id="Group_237" data-name="Group 237">
          <path id="Path_234" data-name="Path 234" d="M127.937,113.285v22.371c0,.3-.014.609,0,.911v.037c.116-.2.232-.4.344-.6q-2.307,1.631-4.614,3.257l-.655.46h.7q-2.307-1.631-4.614-3.257l-.655-.46a.679.679,0,0,0-.7,0q-2.307,1.631-4.614,3.257l-.655.46h.7q-2.307-1.631-4.614-3.257l-.655-.46a.679.679,0,0,0-.7,0q-2.307,1.631-4.614,3.257l-.655.46h.7q-2.307-1.631-4.614-3.257L97.37,136c.116.2.232.4.344.6V106.423c0-.065,0-.13.009-.19,0-.009.014-.116,0-.033s.009-.051.014-.065a2.4,2.4,0,0,1,.1-.358c.014-.033.093-.214.033-.088.033-.065.06-.13.1-.19a3.432,3.432,0,0,1,.2-.307c.046-.065-.009.014-.019.023a.809.809,0,0,1,.06-.07c.046-.051.093-.1.144-.153s.1-.093.158-.139-.014.009-.023.014a.421.421,0,0,1,.074-.051,2.737,2.737,0,0,1,.339-.2c.042-.019.167-.074.056-.033.065-.028.135-.051.2-.074a2.869,2.869,0,0,1,.395-.093c-.121.023.019,0,.065,0,.065,0,.13,0,.2,0a2.528,2.528,0,0,1,.265.014c.084.009.019,0,0,0l.144.028a1.863,1.863,0,0,1,.767.321c.023.014.158.116.088.06.056.046.107.093.163.139s.1.1.149.153c.023.028.046.056.07.079.074.088-.046-.065.023.028a3.117,3.117,0,0,1,.237.4s.046.107.023.051.019.051.019.051a2.156,2.156,0,0,1,.074.246c.019.07.033.144.046.218s0,.019,0,0c0,.051.009.1.014.149s0,.107,0,.163v5.561a1.953,1.953,0,0,0,.465,1.273,1.923,1.923,0,0,0,1.505.632h24.745a.7.7,0,1,0,0-1.394h-23.4c-.488,0-.976-.014-1.464,0-.181,0,.056.023-.037,0-.042-.009-.218-.065-.093-.014-.042-.019-.223-.13-.112-.046a1.089,1.089,0,0,1-.149-.144c-.051-.06.014.014.019.023-.019-.033-.042-.07-.06-.1-.056-.1,0,.056-.019-.06,0-.042-.023-.079-.028-.121.009.07.009.06.009,0,0-.125,0-.246,0-.372v-4.586a4.938,4.938,0,0,0-.344-2.165,3.483,3.483,0,0,0-6.528.688,7.933,7.933,0,0,0-.1,1.756V136.14c0,.144-.009.293,0,.437a.816.816,0,0,0,.386.65c.149.107.3.214.451.321q1.937,1.366,3.87,2.732l.9.637a.679.679,0,0,0,.7,0q2.307-1.631,4.614-3.257l.655-.46h-.7q2.307,1.631,4.614,3.257l.655.46a.679.679,0,0,0,.7,0q2.307-1.631,4.614-3.257l.655-.46h-.7q2.307,1.631,4.614,3.257l.655.46a.679.679,0,0,0,.7,0q2.565-1.812,5.129-3.619a.9.9,0,0,0,.469-.6c.009-.06.009-.1.014-.158,0-.167,0-.335,0-.5V117.778c0-1.477.033-2.964,0-4.442v-.065a.705.705,0,0,0-.7-.7A.731.731,0,0,0,127.937,113.285Z" transform="translate(-96.311 -103.018)"/>
        </g>
      </g>
      <g id="Group_240" data-name="Group 240" transform="translate(2.819 0)">
        <g id="Group_239" data-name="Group 239">
          <path id="Path_235" data-name="Path 235" d="M191.367,106.4v4.827c0,.256,0,.506,0,.762v.033c0,.13,0,.042.009,0a1.134,1.134,0,0,1-.028.121c-.023.172.037-.056,0,.033a1.182,1.182,0,0,1-.074.13c.065-.111-.046.046-.084.084-.125.125.065-.037-.023.014a1.172,1.172,0,0,1-.107.056c-.093.046.1-.023,0,0-.051.009-.1.028-.149.037.037,0,.125,0,0-.009-.163,0-.321,0-.483,0H161.785c-.046,0-.1,0-.149,0h-.07c.135,0,.014,0-.028-.009-.019,0-.144-.042-.06-.014s-.033-.019-.051-.028-.144-.093-.033-.009a1.111,1.111,0,0,1-.107-.1c-.014-.014-.088-.112-.042-.046s-.019-.037-.028-.056c-.019-.037-.051-.153-.014-.028-.009-.037-.023-.079-.033-.116-.033-.125-.009.065,0-.065v-.019c.028-.683,0-1.375,0-2.058V106.4a3.544,3.544,0,0,0-.971-2.416,3.584,3.584,0,0,0-2.518-1.064v1.394h31.6c.056,0,.107,0,.163,0,.028,0,.2.019.13.009s.121.023.153.033l.209.056c.07.023.135.046.2.074-.112-.046.014.009.056.033a2.921,2.921,0,0,1,.362.223c.107.074-.046-.046.046.042.042.042.088.079.135.121s.1.1.144.153a.812.812,0,0,0,.06.07c-.042-.051-.033-.051,0,0a3.062,3.062,0,0,1,.2.335c.014.023.084.172.056.111s.042.121.051.144c.037.121.065.242.093.362,0,.009.019.112,0,.033s0,.046,0,.065c0,.07.009.144.009.218a.7.7,0,0,0,1.394,0,3.524,3.524,0,0,0-1.84-3.071,3.657,3.657,0,0,0-1.724-.414H159.165c-.474,0-.948-.009-1.422,0h-.06a.7.7,0,1,0,0,1.394,2.112,2.112,0,0,1,1.77.976c.056.093.107.186.153.283s-.028-.079.014.033c.019.046.033.093.046.139q.049.16.084.321c0,.014.019.135.009.037a1.871,1.871,0,0,1,.014.228v5.389a2.575,2.575,0,0,0,.177,1.087,1.873,1.873,0,0,0,1.691,1.083c.646.014,1.292,0,1.933,0h27.268a1.894,1.894,0,0,0,1.924-1.891c.014-1.691,0-3.382,0-5.074V106.4a.7.7,0,0,0-1.4,0Z" transform="translate(-156.985 -102.911)"/>
        </g>
      </g>
      <g id="Group_242" data-name="Group 242" transform="translate(5.978 17.368)">
        <g id="Group_241" data-name="Group 241">
          <path id="Path_236" data-name="Path 236" d="M225.682,478.14h17.274c.794,0,1.6.028,2.393,0h.033a.7.7,0,1,0,0-1.394H228.108c-.794,0-1.6-.028-2.393,0h-.033a.7.7,0,0,0,0,1.394Z" transform="translate(-224.985 -476.733)"/>
        </g>
      </g>
      <g id="Group_244" data-name="Group 244" transform="translate(5.978 24.257)">
        <g id="Group_243" data-name="Group 243">
          <path id="Path_237" data-name="Path 237" d="M225.682,626.394H238.5a.7.7,0,0,0,0-1.394H225.682a.7.7,0,1,0,0,1.394Z" transform="translate(-224.985 -625)"/>
        </g>
      </g>
    </g>
  </g>
</svg>
