<svg xmlns="http://www.w3.org/2000/svg" width="46.691" height="48.358" viewBox="0 0 46.691 48.358">
  <g id="noun_Music_2152337" transform="translate(-7.105 -4.85)">
    <g id="Group_236" data-name="Group 236" transform="translate(7.255 5)">
      <g id="Group_227" data-name="Group 227" transform="translate(0.118 12.842)">
        <path id="Path_225" data-name="Path 225" d="M13.684,74.954a6.114,6.114,0,0,1-6.107-6.344,6.116,6.116,0,0,1,8.165-5.535V46.285a2.747,2.747,0,0,1,2.252-2.7l20.675-3.8a2.747,2.747,0,0,1,3.244,2.7V65.771A6.218,6.218,0,0,1,36.318,72a6.118,6.118,0,1,1,1.616-11.826V49.036a2.009,2.009,0,0,0-2.372-1.975l-14.116,2.6A2.008,2.008,0,0,0,19.8,51.636l0,17.2A6.124,6.124,0,0,1,13.684,74.954Zm0-11.494c-.121,0-.242,0-.363.012a5.42,5.42,0,0,0-5,5.165,5.375,5.375,0,1,0,10.746.2l0-17.2a2.748,2.748,0,0,1,2.25-2.7l14.116-2.6a2.748,2.748,0,0,1,3.246,2.7v11.7a.37.37,0,0,1-.532.332,5.35,5.35,0,0,0-3.458-.426,5.379,5.379,0,0,0,1.574,10.622,5.475,5.475,0,0,0,4.917-5.49V42.487A2.009,2.009,0,0,0,38.8,40.511l-20.675,3.8a2.008,2.008,0,0,0-1.646,1.975v17.34a.37.37,0,0,1-.525.335A5.422,5.422,0,0,0,13.68,63.46Z" transform="translate(-7.573 -39.738)" stroke="#000" stroke-width="0.3"/>
      </g>
      <g id="Group_228" data-name="Group 228" transform="translate(5.859 38.506)">
        <path id="Path_226" data-name="Path 226" d="M23.474,116.494a.37.37,0,0,1,0-.739,3.163,3.163,0,0,0,3.16-3.159.37.37,0,1,1,.739,0A3.9,3.9,0,0,1,23.474,116.494Zm22.419-2.948a.37.37,0,0,1-.03-.738,3.245,3.245,0,0,0,2.883-3.279.37.37,0,1,1,.739,0,3.987,3.987,0,0,1-3.561,4.016Z" transform="translate(-23.104 -109.159)" stroke="#000" stroke-width="0.3"/>
      </g>
      <g id="Group_229" data-name="Group 229" transform="translate(8.286 36.359)">
        <path id="Path_227" data-name="Path 227" d="M30.04,104.1a.365.365,0,0,1-.37-.364v-.011a.37.37,0,1,1,.739,0A.374.374,0,0,1,30.04,104.1Z" transform="translate(-29.67 -103.354)" stroke="#000" stroke-width="0.3"/>
      </g>
      <g id="Group_230" data-name="Group 230" transform="translate(0 16.06)">
        <path id="Path_228" data-name="Path 228" d="M9.923,53.774a2.666,2.666,0,1,1,2.663-2.669A2.672,2.672,0,0,1,9.923,53.774Zm0-4.592a1.927,1.927,0,1,0,1.924,1.924A1.929,1.929,0,0,0,9.923,49.182Z" transform="translate(-7.255 -48.442)" stroke="#000" stroke-width="0.3"/>
      </g>
      <g id="Group_231" data-name="Group 231" transform="translate(4.592 9.801)">
        <path id="Path_229" data-name="Path 229" d="M20.046,40.8a.369.369,0,0,1-.37-.37V31.882a.37.37,0,0,1,.739,0v8.552A.369.369,0,0,1,20.046,40.8Z" transform="translate(-19.677 -31.513)" stroke="#000" stroke-width="0.3"/>
      </g>
      <g id="Group_232" data-name="Group 232" transform="translate(25.327)">
        <path id="Path_230" data-name="Path 230" d="M78.4,10.274a2.637,2.637,0,1,1,2.64-2.634A2.637,2.637,0,0,1,78.4,10.274Zm0-4.535a1.9,1.9,0,1,0,1.9,1.9A1.9,1.9,0,0,0,78.4,5.739Z" transform="translate(-75.767 -5)" stroke="#000" stroke-width="0.3"/>
      </g>
      <g id="Group_233" data-name="Group 233" transform="translate(25.327 2.27)">
        <path id="Path_231" data-name="Path 231" d="M76.136,18.4a.369.369,0,0,1-.37-.37V11.51a.37.37,0,1,1,.739,0v6.518A.369.369,0,0,1,76.136,18.4Z" transform="translate(-75.767 -11.141)" stroke="#000" stroke-width="0.3"/>
      </g>
      <g id="Group_234" data-name="Group 234" transform="translate(41.117 28.855)">
        <path id="Path_232" data-name="Path 232" d="M121.118,88.327a2.637,2.637,0,1,1,2.634-2.64A2.643,2.643,0,0,1,121.118,88.327Zm0-4.535a1.9,1.9,0,1,0,1.895,1.895A1.9,1.9,0,0,0,121.118,83.792Z" transform="translate(-118.479 -83.053)" stroke="#000" stroke-width="0.3"/>
      </g>
      <g id="Group_235" data-name="Group 235" transform="translate(45.652 24.601)">
        <path id="Path_233" data-name="Path 233" d="M131.115,78.8a.369.369,0,0,1-.37-.37V71.918a.37.37,0,1,1,.739,0v6.518A.369.369,0,0,1,131.115,78.8Z" transform="translate(-130.745 -71.548)" stroke="#000" stroke-width="0.3"/>
      </g>
    </g>
  </g>
</svg>
