<svg xmlns="http://www.w3.org/2000/svg" width="52.321" height="28.246" viewBox="0 0 52.321 28.246">
  <g id="noun_Waiter_2643576" transform="translate(-2 -12.123)">
    <path id="Path_2062" data-name="Path 2062" d="M24.87,24.116A5.473,5.473,0,1,0,19.4,18.645,5.479,5.479,0,0,0,24.87,24.116Zm0-9.757a4.284,4.284,0,1,1-4.284,4.284A4.291,4.291,0,0,1,24.87,14.359Z" transform="translate(3.29 0.198)"/>
    <path id="Path_2063" data-name="Path 2063" d="M32.971,23.117H47.982a.595.595,0,1,0,0-1.189H32.971a.595.595,0,0,0,0,1.189Z" transform="translate(5.744 1.854)"/>
    <path id="Path_2064" data-name="Path 2064" d="M34.283,13.312h2.545l1.056,2.281H36.437a.593.593,0,0,0-.573.748l1.693,6.391a.6.6,0,0,0,.574.441h4.2a.591.591,0,0,0,.573-.441l1.7-6.391a.6.6,0,0,0-.576-.748H39.19l-1.445-3.125a.6.6,0,0,0-.539-.345H34.283a.595.595,0,1,0,0,1.189Zm7.584,8.675h-3.28l-1.379-5.2h6.038Z" transform="translate(5.992 0)"/>
    <path id="Path_2065" data-name="Path 2065" d="M2.595,23.117H17.606a.595.595,0,0,0,0-1.189H2.595a.595.595,0,0,0,0,1.189Z" transform="translate(0 1.854)"/>
    <path id="Path_2066" data-name="Path 2066" d="M7.239,18.758a3.525,3.525,0,0,0,1.545.667v2.293H7.808a.595.595,0,1,0,0,1.189h3.139a.595.595,0,0,0,0-1.189H9.974V19.409a3.506,3.506,0,0,0,2.24-1.344,3.569,3.569,0,0,0,0-4.28.6.6,0,0,0-.474-.237H7.018a.592.592,0,0,0-.473.237,3.548,3.548,0,0,0,.694,4.973Zm.1-4.022H11.42a2.37,2.37,0,0,1-.157,2.609,2.411,2.411,0,0,1-3.308.463,2.361,2.361,0,0,1-.62-3.071Z" transform="translate(0.723 0.27)"/>
    <path id="Path_2067" data-name="Path 2067" d="M11.254,24.208A2.8,2.8,0,1,0,7.26,28.121l4.709,4.805a4.981,4.981,0,0,0,6.705.395l2.2-1.777v6.277a.595.595,0,0,0,1.189,0V30.3a.594.594,0,0,0-.967-.463L17.929,32.4a3.793,3.793,0,0,1-5.11-.3L8.11,27.291a1.606,1.606,0,1,1,2.295-2.249l4.709,4.805a.6.6,0,0,0,.8.046l5.009-4.037a9.978,9.978,0,0,1,1.885-1.189l3.988,7.323a.593.593,0,0,0,1.044,0l3.988-7.321a10.015,10.015,0,0,1,1.885,1.189L38.719,29.9a.6.6,0,0,0,.8-.046l4.71-4.805a1.606,1.606,0,1,1,2.295,2.247L41.812,32.1a3.792,3.792,0,0,1-5.11.3L33.53,29.841a.593.593,0,0,0-.966.461v7.522a.595.595,0,0,0,1.189,0v-6.28l2.2,1.777a4.979,4.979,0,0,0,6.707-.392l4.709-4.805a2.8,2.8,0,0,0-3.994-3.916l-4.331,4.421-4.589-3.7a11.218,11.218,0,0,0-2.579-1.555c-.007,0-.011-.011-.018-.015a.4.4,0,0,0-.1-.03,11.507,11.507,0,0,0-8.9,0,.532.532,0,0,0-.1.03c-.007,0-.011.01-.018.015a11.243,11.243,0,0,0-2.579,1.555l-4.589,3.7Zm19.474-.01-3.412,6.264L23.905,24.2A10.329,10.329,0,0,1,30.728,24.2Z" transform="translate(0.844 1.95)"/>
  </g>
</svg>
