<svg xmlns="http://www.w3.org/2000/svg" width="29.728" height="54.055" viewBox="0 0 29.728 54.055">
  <g id="noun_Hookah_1010921" transform="translate(-8.076 -0.245)">
    <path id="Path_2051" data-name="Path 2051" d="M8.673,17.355a13.487,13.487,0,0,1-2.458-.211l-.159-.06a1.336,1.336,0,0,1-.688-1.248c.027-.337.219-.957,1.206-1.329a2.687,2.687,0,0,0,.644-.336A1.2,1.2,0,0,1,7.183,12.9a2.455,2.455,0,0,0,.187-.412,2.69,2.69,0,0,1-1.7-2.526A6.93,6.93,0,0,1,6.951,6.143a3.707,3.707,0,0,0,.494-.988c0-.111-.329-.217-.721-.231H5.175a2.376,2.376,0,0,1-1.8-.662,1.985,1.985,0,0,1-.492-.93A1.261,1.261,0,0,1,2.3,2.964a2,2,0,0,1-.383-1.491.536.536,0,0,1,.447-.456A48.113,48.113,0,0,1,8.673.666a48.112,48.112,0,0,1,6.313.352.536.536,0,0,1,.447.456,2,2,0,0,1-.384,1.491,1.262,1.262,0,0,1-.588.367,1.985,1.985,0,0,1-.493.93,2.376,2.376,0,0,1-1.8.662H10.622c-.392.015-.721.12-.721.231a3.706,3.706,0,0,0,.494.988,6.931,6.931,0,0,1,1.278,3.821,2.69,2.69,0,0,1-1.7,2.526,2.454,2.454,0,0,0,.187.412,1.2,1.2,0,0,1-.034,1.268,2.687,2.687,0,0,0,.644.336c.987.373,1.179.993,1.206,1.329a1.336,1.336,0,0,1-.688,1.248l-.159.06a13.487,13.487,0,0,1-2.459.212ZM6.529,16.112a13.484,13.484,0,0,0,4.287,0,.246.246,0,0,0,.094-.192c-.008-.1-.148-.273-.516-.412a3.1,3.1,0,0,1-1.409-.967.536.536,0,0,1,.055-.711c.27-.259.215-.356.192-.4a3.421,3.421,0,0,1-.42-1.221.536.536,0,0,1,.4-.594A1.664,1.664,0,0,0,10.6,9.929,5.964,5.964,0,0,0,9.477,6.692a3.342,3.342,0,0,1-.646-1.539c0-.778.659-1.265,1.765-1.3h1.576a1.367,1.367,0,0,0,1.022-.329,1.014,1.014,0,0,0,.252-.642A.536.536,0,0,1,14,2.319c.186.006.237-.051.257-.072a.511.511,0,0,0,.1-.235,53.383,53.383,0,0,0-5.681-.275,53.384,53.384,0,0,0-5.681.274.509.509,0,0,0,.1.236c.02.021.071.078.256.072a.532.532,0,0,1,.4.157.521.521,0,0,1,.149.4,1,1,0,0,0,.258.653,1.378,1.378,0,0,0,1.015.322H6.751c1.105.037,1.765.524,1.765,1.3A3.342,3.342,0,0,1,7.87,6.693,5.964,5.964,0,0,0,6.744,9.93a1.664,1.664,0,0,0,1.391,1.688.536.536,0,0,1,.4.594,3.421,3.421,0,0,1-.42,1.221c-.024.042-.079.139.192.4a.536.536,0,0,1,.055.711,3.1,3.1,0,0,1-1.409.967c-.368.139-.508.309-.517.412a.246.246,0,0,0,.093.191Z" transform="translate(13.77 4.591)"/>
    <path id="Path_2052" data-name="Path 2052" d="M5.482,6.131a.535.535,0,0,1-.315-.1,2.652,2.652,0,0,1-1.2-2.081.535.535,0,0,1,.177-.383,1.123,1.123,0,0,0,.222-.286,1.257,1.257,0,0,0-.352-.1A2.028,2.028,0,0,1,2.329,1.933,2.108,2.108,0,0,1,2.195.945.536.536,0,0,1,2.533.518,13.066,13.066,0,0,1,5.482.249,13.067,13.067,0,0,1,8.431.518.536.536,0,0,1,8.77.945a2.108,2.108,0,0,1-.135.988A2.028,2.028,0,0,1,6.95,3.178a1.257,1.257,0,0,0-.352.1,1.128,1.128,0,0,0,.223.288A.542.542,0,0,1,7,3.947,2.652,2.652,0,0,1,5.8,6.029a.535.535,0,0,1-.315.1ZM5.066,4.148a1.627,1.627,0,0,0,.417.739A1.627,1.627,0,0,0,5.9,4.148a1.329,1.329,0,0,1-.354-1.186c.129-.442.542-.725,1.227-.84a.994.994,0,0,0,.907-.678,19.514,19.514,0,0,0-4.393,0,.994.994,0,0,0,.907.678c.685.115,1.1.4,1.227.84a1.329,1.329,0,0,1-.354,1.186Z" transform="translate(16.961 0)"/>
    <path id="Path_2053" data-name="Path 2053" d="M3.47,5.1a.534.534,0,0,1-.356-.135L2.73,4.625a.536.536,0,0,1-.105-.673L3.848,1.884a.536.536,0,0,1,.836-.11l.924.9a.536.536,0,0,1-.027.79L3.818,4.974A.534.534,0,0,1,3.47,5.1Zm.952-2.085-.039.066.057-.048Z" transform="translate(20.988 15.122)"/>
    <path id="Path_2054" data-name="Path 2054" d="M3.122,10.285a.536.536,0,0,1-.494-.33L2.1,8.678a.536.536,0,0,1,.709-.7,2.307,2.307,0,0,0,.772-.189,25.8,25.8,0,0,0,2.4-1.28c1.1-.628,2.245-1.278,2.973-1.581a9.37,9.37,0,0,1,2.78-.68.536.536,0,0,1,.525.329l.438,1.051a.536.536,0,0,1-.136.6A9.37,9.37,0,0,1,10.116,7.73c-.728.3-1.993.655-3.216,1a25.805,25.805,0,0,0-2.6.8,2.3,2.3,0,0,0-.678.415.536.536,0,0,1-.413.335ZM3.607,9.959ZM3.655,9.793Zm0,0Zm0,0Zm0,0Zm0,0Zm0,0Zm0,0Zm0,0ZM2.938,8.066Zm0,0Zm0,0Zm0,0Zm0,0Zm0,0Zm0,0Zm8.486-2.7a8.637,8.637,0,0,0-2.059.558C8.7,6.2,7.583,6.831,6.508,7.443L5.518,8l1.094-.308C7.8,7.362,9.038,7.019,9.7,6.741a8.636,8.636,0,0,0,1.846-1.068Z" transform="translate(15.545 44.015)"/>
    <path id="Path_2055" data-name="Path 2055" d="M12.652,2.215A37.523,37.523,0,0,0,2.205,2.21l-.2-1.053a37.939,37.939,0,0,1,10.777-.005Z" transform="translate(15.031 5.761)"/>
    <rect id="Rectangle_141" data-name="Rectangle 141" width="1.908" height="1.071" transform="translate(21.541 9.846)"/>
    <rect id="Rectangle_142" data-name="Rectangle 142" width="1.339" height="1.071" transform="translate(21.774 16.192)"/>
    <rect id="Rectangle_143" data-name="Rectangle 143" width="1.476" height="1.071" transform="translate(21.705 18.272)"/>
    <path id="Path_2056" data-name="Path 2056" d="M4.54,4.258A8.923,8.923,0,0,1,2.25,4.02l.3-1.029A6.489,6.489,0,0,0,3.7,3.158a14.481,14.481,0,0,0,3.314-.181l.17,1.057a16.642,16.642,0,0,1-2.648.224Z" transform="translate(17.692 30.014)"/>
    <path id="Path_2057" data-name="Path 2057" d="M4.54,4.084a8.924,8.924,0,0,1-2.29-.238l.3-1.029A6.491,6.491,0,0,0,3.7,2.984,14.479,14.479,0,0,0,7.017,2.8L7.188,3.86a16.642,16.642,0,0,1-2.648.224Z" transform="translate(17.692 28.101)"/>
    <path id="Path_2058" data-name="Path 2058" d="M4.348,3.963a8.9,8.9,0,0,1-2.078-.2l.27-1.036a11.5,11.5,0,0,0,4.055-.012l.155,1.06a16.643,16.643,0,0,1-2.4.184Z" transform="translate(17.905 27.18)"/>
    <path id="Path_2059" data-name="Path 2059" d="M9.918,29.2A13.971,13.971,0,0,1,3,27.788a2.164,2.164,0,0,1-1.2-2.191,30.836,30.836,0,0,1,2.412-6.972A30.276,30.276,0,0,1,5.85,15.492,5.317,5.317,0,0,1,6.97,14.081l.014-.767c.033-1.163.081-1.235.168-1.367a4.02,4.02,0,0,0,.249-.437A1.642,1.642,0,0,1,7.067,10.5a6.19,6.19,0,0,1,.647-1.971,17.083,17.083,0,0,0,.94-2.643,5.5,5.5,0,0,0-.488-3.376L9.1,1.989a6.5,6.5,0,0,1,.6,4.105,17.35,17.35,0,0,1-1,2.847,11.591,11.591,0,0,0-.567,1.525c.017.338.094.378.163.414a.536.536,0,0,1,.253.668,5.238,5.238,0,0,1-.453.905c-.042.352-.068,1.672-.059,1.9a.536.536,0,0,1-.4.561,14.824,14.824,0,0,0-2.553,4.357,28.571,28.571,0,0,0-2.233,6.479c-.022.151-.09.609.722,1.133a13.171,13.171,0,0,0,6.342,1.243,13.171,13.171,0,0,0,6.342-1.243c.813-.524.745-.983.722-1.133a28.571,28.571,0,0,0-2.233-6.479A14.824,14.824,0,0,0,12.2,14.918a.536.536,0,0,1-.4-.561c.009-.232-.017-1.553-.059-1.9a5.235,5.235,0,0,1-.453-.905.536.536,0,0,1,.253-.668c.068-.035.145-.075.163-.413a11.473,11.473,0,0,0-.573-1.511A16.927,16.927,0,0,1,10.1,6.094a6.5,6.5,0,0,1,.605-4.1l.934.525a5.5,5.5,0,0,0-.487,3.375,16.656,16.656,0,0,0,.958,2.651A6.068,6.068,0,0,1,12.77,10.5a1.642,1.642,0,0,1-.334,1.008,4.018,4.018,0,0,0,.249.437c.087.132.135.2.168,1.367l.014.767a5.317,5.317,0,0,1,1.119,1.411,30.285,30.285,0,0,1,1.644,3.134A30.834,30.834,0,0,1,18.043,25.6a2.164,2.164,0,0,1-1.2,2.191A13.971,13.971,0,0,1,9.918,29.2ZM12.23,14.925Zm-4.623,0Zm.043-.012Zm4.538,0Zm-4.148-.576,0,.018Zm3.759,0,0,.018Zm-.008-1.8Zm-.062-.139Zm-3.62,0ZM11.7,10.454Z" transform="translate(12.525 19.159)"/>
    <path id="Path_2060" data-name="Path 2060" d="M20.721,36.77l-.382-1a9.03,9.03,0,0,0,6.652-7.362,12.623,12.623,0,0,0-5.847-11.092,35.671,35.671,0,0,0-9.1-3.9l-1.394-.459A23.536,23.536,0,0,1,4.493,9.981a7.513,7.513,0,0,1-3.08-3.743,3.728,3.728,0,0,1,.765-3.505,3.478,3.478,0,0,1,2.53-1.3A11.747,11.747,0,0,1,12.477,5.08l.076.068c.446.4.867.779,1.28,1.123l-.685.823c-.429-.357-.858-.742-1.311-1.15l-.076-.068A10.916,10.916,0,0,0,4.794,2.5,2.415,2.415,0,0,0,3.012,3.4,2.665,2.665,0,0,0,2.44,5.935,6.607,6.607,0,0,0,5.116,9.11a22.469,22.469,0,0,0,5.869,2.827l1.39.458a36.433,36.433,0,0,1,9.369,4.033,15.417,15.417,0,0,1,4.852,5.364,11.494,11.494,0,0,1,1.46,6.737,8.728,8.728,0,0,1-2.044,4.708,12.716,12.716,0,0,1-5.289,3.532Z" transform="translate(6.815 13.006)"/>
    <path id="Path_2061" data-name="Path 2061" d="M9.652,11.488a20.463,20.463,0,0,1-3.559-.341,17.759,17.759,0,0,1-3.567-.969l.4-.993a16.718,16.718,0,0,0,3.352.907,14.236,14.236,0,0,0,6.248-.038,4.937,4.937,0,0,0,2.924-1.98,3.76,3.76,0,0,0-.129-4.146,3.555,3.555,0,0,0-2.539-1.5,7.353,7.353,0,0,0-5.407,2.1C5.674,6,4.823,6.9,4.815,6.91l-.782-.732c.036-.038.892-.949,2.644-2.46A10.494,10.494,0,0,1,9.841,1.788a6.518,6.518,0,0,1,3.072-.421A4.6,4.6,0,0,1,16.2,3.309a4.841,4.841,0,0,1,.16,5.338A7.274,7.274,0,0,1,9.652,11.488Z" transform="translate(20.723 11.941)"/>
    <rect id="Rectangle_144" data-name="Rectangle 144" width="1.071" height="12.418" transform="translate(21.96 33.736)"/>
  </g>
</svg>
