<svg xmlns="http://www.w3.org/2000/svg" width="111.386" height="60" viewBox="0 0 111.386 60">
  <g id="noun_Food_Delivery_1334937" data-name="noun_Food Delivery_1334937" transform="translate(-2.5 -24.4)">
    <g id="Group_91" data-name="Group 91" transform="translate(2.5 24.4)">
      <path id="Path_158" data-name="Path 158" d="M110.116,53.412,99.1,51.889,94.647,40.522A7.921,7.921,0,0,0,86.913,35.6H74.139a2.046,2.046,0,0,0-2.109,1.758l-4.219,23.32A2.132,2.132,0,0,1,65.7,62.436H9.686a2.046,2.046,0,0,0-2.109,1.758L6.4,70.873a2.228,2.228,0,0,0,2.109,2.578h4.57a7.955,7.955,0,0,0,8.086,9.023,12.246,12.246,0,0,0,11.367-9.023H83.514a7.98,7.98,0,0,0,8.2,9.023,12.246,12.246,0,0,0,11.367-9.023h5.508a2.046,2.046,0,0,0,2.109-1.758l2.461-13.945A3.554,3.554,0,0,0,110.116,53.412ZM28.084,72.631a6.385,6.385,0,0,1-6.094,5.156,4.181,4.181,0,0,1-4.219-5.156,6.385,6.385,0,0,1,6.094-5.156A4.181,4.181,0,0,1,28.084,72.631Zm48.4-21.094,1.758-9.844h7.5a3.089,3.089,0,0,1,2.93,1.875l3.164,7.969ZM98.514,72.631a6.385,6.385,0,0,1-6.094,5.156A4.181,4.181,0,0,1,88.2,72.631,6.385,6.385,0,0,1,94.3,67.475,4.234,4.234,0,0,1,98.514,72.631Z" transform="translate(-1.835 -22.475)" fill="#fd3018"/>
      <path id="Path_160" data-name="Path 160" d="M65.9,59.439l5.742-32.461A2.228,2.228,0,0,0,69.531,24.4h-55.9A3.651,3.651,0,0,0,10,28.033h0a3.651,3.651,0,0,0,3.633,3.633h6.094a3.633,3.633,0,1,1,0,7.266H9.883A3.651,3.651,0,0,0,6.25,42.564h0A3.651,3.651,0,0,0,9.883,46.2h6.094a3.651,3.651,0,0,1,3.633,3.633,3.835,3.835,0,0,1-3.633,3.75H6.133A3.651,3.651,0,0,0,2.5,57.212h0a3.651,3.651,0,0,0,3.633,3.633H63.672A1.6,1.6,0,0,0,65.9,59.439ZM41.406,37.173v-.82a1.851,1.851,0,0,1,1.875-1.875h.938a1.851,1.851,0,0,1,1.875,1.875v.82a10.1,10.1,0,0,1,7.734,8.906.5.5,0,0,1-.469.469H34.141a.5.5,0,0,1-.469-.469A10.394,10.394,0,0,1,41.406,37.173ZM56.055,50.416a.756.756,0,0,1-.7.7H32.266a.756.756,0,0,1-.7-.7V49.127a.756.756,0,0,1,.7-.7H55.351a.756.756,0,0,1,.7.7Z" transform="translate(-2.5 -24.4)" fill="#fea832"/>
    </g>
  </g>
</svg>
