<svg xmlns="http://www.w3.org/2000/svg" width="47.125" height="52" viewBox="0 0 47.125 52">
  <g id="bag" transform="translate(-24.003 0)">
    <g id="Group_92" data-name="Group 92" transform="translate(37.003 0)">
      <path id="Path_161" data-name="Path 161" d="M156.373.062a.813.813,0,0,0-.885.176l-3.25,3.25a.812.812,0,0,0-.238.575V15.437a.813.813,0,0,0,.813.813h3.25a.813.813,0,0,0,.813-.813V.812A.812.812,0,0,0,156.373.062Z" transform="translate(-152 0)" fill="#fa892d"/>
      <path id="Path_162" data-name="Path 162" d="M316.637,3.488l-3.25-3.25A.813.813,0,0,0,312,.812V15.437a.813.813,0,0,0,.813.813h3.25a.813.813,0,0,0,.813-.813V4.062A.813.813,0,0,0,316.637,3.488Z" transform="translate(-295.75 0)" fill="#fa892d"/>
    </g>
    <path id="Path_163" data-name="Path 163" d="M169.638.238A.813.813,0,0,0,169.063,0h-13a.813.813,0,0,0-.575.238l-3.25,3.25a.812.812,0,0,0-.176.885h21a.813.813,0,0,0-.176-.885Z" transform="translate(-114.997 0)" fill="#fcc496"/>
    <path id="Path_164" data-name="Path 164" d="M71.115,180.416l-6.5-35.75a.813.813,0,0,0-.8-.667h-32.5a.813.813,0,0,0-.8.667l-6.5,35.75a.821.821,0,0,0,.8.958h45.5A.821.821,0,0,0,71.115,180.416Z" transform="translate(0 -129.374)" fill="#fba761"/>
    <path id="Path_165" data-name="Path 165" d="M26.454,180.416l6.5-35.75a.813.813,0,0,1,.8-.667H31.315a.813.813,0,0,0-.8.667l-6.5,35.75a.821.821,0,0,0,.8.958h2.438A.821.821,0,0,1,26.454,180.416Z" transform="translate(0 -129.374)" fill="#fa892d"/>
    <path id="Path_166" data-name="Path 166" d="M126.625,184a14.625,14.625,0,1,0,14.625,14.625A14.642,14.642,0,0,0,126.625,184Z" transform="translate(-79.06 -165.313)" fill="#e4dad8"/>
    <path id="Path_167" data-name="Path 167" d="M148.188,208a12.188,12.188,0,1,0,12.188,12.188A12.2,12.2,0,0,0,148.188,208Z" transform="translate(-100.622 -186.875)" fill="#f2edec"/>
    <g id="Group_93" data-name="Group 93" transform="translate(42.69 25.187)">
      <path id="Path_168" data-name="Path 168" d="M269.688,248a.813.813,0,0,0-.813.813v4.063h-.812v-4.063a.813.813,0,1,0-1.625,0v4.063h-.812v-4.063a.813.813,0,1,0-1.625,0v4.875a1.625,1.625,0,0,0,1.625,1.625h.406v9.344a1.219,1.219,0,1,0,2.438,0v-9.344h.406a1.625,1.625,0,0,0,1.625-1.625v-4.875A.812.812,0,0,0,269.688,248Z" transform="translate(-258.313 -248)" fill="#fad000"/>
      <path id="Path_169" data-name="Path 169" d="M208.406,248h0a.406.406,0,0,0-.406.406v16.25a1.219,1.219,0,0,0,1.219,1.219h0a1.219,1.219,0,0,0,1.219-1.219v-7.719h.813a.813.813,0,0,0,.813-.812v-4.469A3.656,3.656,0,0,0,208.406,248Z" transform="translate(-208 -248)" fill="#fad000"/>
    </g>
  </g>
</svg>
