<svg xmlns="http://www.w3.org/2000/svg" width="58.15" height="34.743" viewBox="0 0 58.15 34.743">
  <g id="Group_197" data-name="Group 197" transform="translate(-2.6 -21.6)">
    <path id="Path_199" data-name="Path 199" d="M39.98,21.8a17.28,17.28,0,1,0,17.28,17.28A17.3,17.3,0,0,0,39.98,21.8Zm7.476,19.057H39.98A1.778,1.778,0,0,1,38.2,39.08V29.888a1.777,1.777,0,1,1,3.554,0V37.3h5.7a1.777,1.777,0,1,1,0,3.554Z" transform="translate(-7.784 -0.077)" fill="#f6bf9b"/>
    <path id="Path_200" data-name="Path 200" d="M91.287,21.741a9.919,9.919,0,0,0-5.882,8.7L85.1,38.469a2.5,2.5,0,0,0,2.512,2.574h.98L86.753,52.93a2.94,2.94,0,0,0,2.941,3.431,3.007,3.007,0,0,0,3-3v-30.7A.993.993,0,0,0,91.287,21.741Z" transform="translate(-31.947 -0.019)" fill="#e9686a"/>
    <path id="Path_201" data-name="Path 201" d="M11.362,21.6a1.033,1.033,0,0,0-1.042,1.042v8.027a.549.549,0,0,1-.551.551H9.1a.549.549,0,0,1-.551-.551V22.7a1.042,1.042,0,0,0-2.083,0V30.73a.549.549,0,0,1-.551.551H5.235a.549.549,0,0,1-.551-.551V22.7a1.033,1.033,0,0,0-1.042-1.042A1.074,1.074,0,0,0,2.6,22.7v9.436a2.524,2.524,0,0,0,2.512,2.512h.551L4.438,53.157a3.012,3.012,0,0,0,3,3.186H7.5a3.012,3.012,0,0,0,3-3.186L9.4,34.59h.551a2.524,2.524,0,0,0,2.512-2.512V22.7A1.139,1.139,0,0,0,11.362,21.6Z" transform="translate(0 0)" fill="#e9686a"/>
  </g>
</svg>
